#!OML:ASF Y:\EmotionMaleHayes\Project 1\Capture day 1\Session 1\Male1.ASF
:FULLY-SPECIFIED
:DEGREES
219
root 5.99585 16.828 1.4937 185.832 -31.765 159.023
lowerback 16.7777 2.22232 1.28838
upperback 3.93936 2.9264 3.02444
thorax -5.27676 1.25517 1.87855
lowerneck -23.8309 3.2186 3.23611
upperneck 16.4443 4.16255 -3.94262
head 9.23061 1.68569 -1.2841
rclavicle -4.57205e-014 -8.90555e-014
rhumerus -37.5281 -3.37609 -63.672
rradius 44.3163
rwrist -27.5831
rhand -17.0663 -37.0116
rfingers 7.12502
rthumb 9.17139 -66.7922
lclavicle -4.57205e-014 -8.90555e-014
lhumerus -33.47 -19.1343 36.3509
lradius 96.2071
lwrist 19.2853
lhand -25.6094 -34.9784
lfingers 7.12502
lthumb 0.92302 -5.00067
rfemur -2.34829 5.07851 8.13866
rtibia 36.5226
rfoot -28.604 -15.6967
rtoes 8.26631
lfemur -6.56485 14.6345 -10.7558
ltibia 19.4842
lfoot -11.2414 10.5008
ltoes -7.4947
220
root 6.14775 16.9406 1.41623 186.167 -34.0799 158.555
lowerback 16.3317 2.23783 1.10448
upperback 3.66755 2.9624 3.15425
thorax -5.34407 1.29419 2.11987
lowerneck -24.1113 3.23772 3.50301
upperneck 16.9717 4.13272 -4.05377
head 9.47127 1.6681 -1.36879
rclavicle -1.59028e-015 3.18055e-014
rhumerus -39.2619 -4.39044 -61.5985
rradius 42.8161
rwrist -27.9176
rhand -16.7352 -37.5328
rfingers 7.12502
rthumb 9.49088 -67.299
lclavicle -1.59028e-015 3.18055e-014
lhumerus -33.0542 -20.6957 35.6121
lradius 95.7007
lwrist 19.2122
lhand -25.4836 -34.6718
lfingers 7.12502
lthumb 1.04446 -4.69462
rfemur -0.787043 4.86608 8.9959
rtibia 34.62
rfoot -27.7233 -16.7445
rtoes 11.6446
lfemur -6.17319 14.493 -11.6539
ltibia 21.0467
lfoot -11.0148 10.2685
ltoes -10.1463
221
root 6.29925 17.0588 1.3348 186.188 -36.4895 158.393
lowerback 15.9307 2.22654 1.19621
upperback 3.49954 2.99179 3.31802
thorax -5.31127 1.31963 2.24356
lowerneck -21.9372 3.06757 0.549537
upperneck 14.5453 3.98964 0.0346513
head 8.09927 1.92394 0.445159
rclavicle -1.09729e-013 6.67916e-014
rhumerus -41.2014 -4.97538 -59.7211
rradius 41.6438
rwrist -28.6367
rhand -17.1594 -38.0245
rfingers 7.12502
rthumb 9.08149 -67.809
lclavicle -1.09729e-013 6.67916e-014
lhumerus -32.4775 -22.1217 34.594
lradius 95.1765
lwrist 19.125
lhand -25.134 -34.5145
lfingers 7.12502
lthumb 1.38212 -4.53919
rfemur 0.860257 4.62757 10.1404
rtibia 32.8316
rfoot -26.9776 -17.2867
rtoes 15.824
lfemur -5.57811 14.4051 -12.0841
ltibia 22.7611
lfoot -9.94528 10.2487
ltoes -19.4622
222
root 6.45448 17.1826 1.25134 186.622 -39.4292 157.887
lowerback 15.2951 2.08413 1.13745
upperback 3.21218 2.83129 3.43567
thorax -5.27555 1.26042 2.44544
lowerneck -25.1917 3.21373 4.2419
upperneck 18.5476 3.99865 -4.67251
head 10.2476 1.55273 -1.72829
rclavicle -1.61016e-014 -7.31528e-014
rhumerus -43.4048 -4.9549 -58.1202
rradius 40.701
rwrist -29.6215
rhand -17.7051 -38.505
rfingers 7.12502
rthumb 8.55491 -68.3117
lclavicle -1.61016e-014 -7.31528e-014
lhumerus -31.8742 -23.5578 33.5663
lradius 94.7433
lwrist 19.2247
lhand -24.717 -34.2934
lfingers 7.12502
lthumb 1.7849 -4.3211
rfemur 2.25187 3.6397 10.8302
rtibia 31.1649
rfoot -25.8271 -17.9051
rtoes 18.2265
lfemur -5.42739 14.0874 -12.8482
ltibia 24.82
lfoot -11.4711 10.0325
ltoes 11.0756
223
root 6.60966 17.3063 1.16872 187.629 -42.4416 156.943
lowerback 14.441 1.91989 0.659783
upperback 2.80007 2.58674 3.48866
thorax -5.26192 1.1729 2.83321
lowerneck -24.2521 2.86429 3.11928
upperneck 17.8005 3.58822 -3.24197
head 9.74088 1.48059 -1.10455
rclavicle -5.56597e-014 8.90555e-014
rhumerus -44.9078 -7.1297 -55.56
rradius 38.2472
rwrist -27.603
rhand -17.0921 -37.938
rfingers 7.12502
rthumb 9.14644 -67.7196
lclavicle -5.56597e-014 8.90555e-014
lhumerus -31.2205 -24.8769 32.4789
lradius 94.3201
lwrist 19.4469
lhand -24.1519 -34.3843
lfingers 7.12502
lthumb 2.33065 -4.41726
rfemur 3.02159 2.12429 10.9612
rtibia 29.9259
rfoot -23.9235 -18.8485
rtoes 17.678
lfemur -5.54717 13.8543 -13.9839
ltibia 26.9107
lfoot -10.4011 10.5069
ltoes -7.62643
224
root 6.75644 17.4258 1.08708 187.981 -44.998 156.45
lowerback 13.9734 1.85128 0.358411
upperback 2.58349 2.47886 3.61098
thorax -5.24866 1.13788 3.16112
lowerneck -24.8435 2.90858 3.83433
upperneck 18.506 3.56702 -3.97049
head 10.126 1.4193 -1.48111
rclavicle -1.14798e-014 -3.49861e-014
rhumerus -46.5436 -8.21563 -53.4053
rradius 36.3728
rwrist -26.2264
rhand -16.4603 -37.1486
rfingers 7.12502
rthumb 9.7561 -66.9026
lclavicle -1.14798e-014 -3.49861e-014
lhumerus -30.5668 -25.8214 31.3293
lradius 93.8827
lwrist 19.3107
lhand -23.784 -34.0839
lfingers 7.12502
lthumb 2.68601 -4.12104
rfemur 3.76033 1.23783 11.4216
rtibia 29.4179
rfoot -22.736 -18.7472
rtoes 20.5601
lfemur -4.88308 14.1283 -14.4153
ltibia 28.7365
lfoot -10.2349 10.7184
ltoes -10.0758
225
root 6.90057 17.5423 1.00038 187.351 -47.6752 156.696
lowerback 13.8324 1.84225 0.730985
upperback 2.42603 2.54379 3.88367
thorax -5.33777 1.16866 3.22886
lowerneck -25.0008 2.6197 3.78365
upperneck 19.0629 3.22519 -4.09971
head 10.3423 1.23489 -1.57689
rclavicle 1.29757e-013 -1.11319e-013
rhumerus -48.8112 -9.12101 -51.0169
rradius 34.9496
rwrist -25.1783
rhand -16.3 -36.6571
rfingers 7.12502
rthumb 9.91077 -66.4038
lclavicle 1.29757e-013 -1.11319e-013
lhumerus -29.7556 -26.7003 30.4126
lradius 93.3268
lwrist 18.8709
lhand -23.3429 -33.402
lfingers 7.12502
lthumb 3.11198 -3.44499
rfemur 4.78861 0.344071 12.4349
rtibia 29.0721
rfoot -21.037 -18.6972
rtoes 21.4914
lfemur -3.56179 14.16 -13.9252
ltibia 30.3382
lfoot -10.1441 10.9493
ltoes -9.4075
226
root 7.04404 17.6594 0.914106 187.144 -50.4971 156.482
lowerback 13.6147 1.73267 0.63952
upperback 2.32197 2.40128 4.07862
thorax -5.33316 1.10572 3.51749
lowerneck -24.4871 2.40514 3.20173
upperneck 18.6741 2.99223 -3.47243
head 10.0795 1.17257 -1.29399
rclavicle 1.12313e-014 5.725e-014
rhumerus -50.7923 -10.1427 -48.7174
rradius 33.6138
rwrist -23.6521
rhand -16.1423 -36.4097
rfingers 7.12502
rthumb 10.0629 -66.1491
lclavicle 1.12313e-014 5.725e-014
lhumerus -29.0995 -26.8825 29.5083
lradius 92.5677
lwrist 18.3879
lhand -22.7588 -33.1437
lfingers 7.12502
lthumb 3.67602 -3.19562
rfemur 5.58333 -0.906536 12.7756
rtibia 28.9708
rfoot -18.951 -18.2116
rtoes 22.0889
lfemur -2.3881 13.8298 -13.8598
ltibia 31.8966
lfoot -10.21 11.1884
ltoes -7.60506
227
root 7.18385 17.7693 0.834526 188.038 -53.3361 155.13
lowerback 13.2651 1.6112 -0.109976
upperback 2.10342 2.16078 4.11083
thorax -5.38717 1.01552 4.02601
lowerneck -24.678 2.27456 3.36581
upperneck 19.1114 2.83 -3.77712
head 10.2731 1.06568 -1.45754
rclavicle 4.57205e-015 4.77083e-014
rhumerus -52.93 -10.8205 -46.4442
rradius 32.5969
rwrist -21.97
rhand -16.1707 -36.5306
rfingers 7.12502
rthumb 10.0355 -66.2714
lclavicle 4.57205e-015 4.77083e-014
lhumerus -28.6697 -27.0216 28.7721
lradius 91.9323
lwrist 18.0762
lhand -22.6094 -32.9135
lfingers 7.12502
lthumb 3.8203 -2.968
rfemur 5.97521 -2.86087 11.9779
rtibia 28.9732
rfoot -15.4208 -18.0439
rtoes 17.3745
lfemur -1.53311 13.6479 -14.6512
ltibia 33.6777
lfoot -10.1782 11.1451
ltoes -6.60172
228
root 7.32794 17.8693 0.761802 189.241 -56.45 153.461
lowerback 13.0015 1.45691 -0.768
upperback 1.88139 1.88816 4.01653
thorax -5.47463 0.908743 4.35218
lowerneck -24.8552 2.05483 3.57466
upperneck 19.5339 2.49478 -3.94919
head 10.45 0.900934 -1.61052
rclavicle 2.22639e-014 -2.22639e-014
rhumerus -55.2704 -11.9761 -43.9877
rradius 31.5996
rwrist -20.0595
rhand -16.6617 -36.8019
rfingers 7.12502
rthumb 9.56174 -66.565
lclavicle 2.22639e-014 -2.22639e-014
lhumerus -27.9537 -27.2413 27.8121
lradius 91.5343
lwrist 18.2986
lhand -22.6381 -32.2889
lfingers 7.12502
lthumb 3.79254 -2.34287
rfemur 6.25744 -5.00979 11.0159
rtibia 29.5079
rfoot -12.925 -17.1992
rtoes 16.619
lfemur -0.837072 13.3604 -15.4169
ltibia 35.6601
lfoot -9.92302 10.7659
ltoes -6.71342
229
root 7.47625 17.9671 0.690961 190.461 -59.4988 151.869
lowerback 12.8525 1.31156 -1.31895
upperback 1.66098 1.64053 3.93602
thorax -5.6179 0.812103 4.62676
lowerneck -25.0178 1.82343 3.95239
upperneck 19.8186 2.1413 -4.37766
head 10.578 0.709777 -1.8882
rclavicle 2.90226e-014 6.04305e-014
rhumerus -57.5779 -13.3279 -41.4126
rradius 30.6489
rwrist -18.1444
rhand -16.6743 -36.4308
rfingers 7.12502
rthumb 9.54963 -66.1943
lclavicle 2.90226e-014 6.04305e-014
lhumerus -27.2583 -27.1974 26.8653
lradius 91.1386
lwrist 18.7547
lhand -22.4904 -31.4588
lfingers 7.12502
lthumb 3.93517 -1.51535
rfemur 6.33583 -6.99641 10.2224
rtibia 30.254
rfoot -10.1436 -16.2831
rtoes 17.32
lfemur -0.201434 13.1801 -15.8756
ltibia 37.7437
lfoot -9.47475 10.2938
ltoes -6.82376
